<?xml version="1.0" encoding="utf-8"?>
<!-- Generator: Adobe Illustrator 28.3.0, SVG Export Plug-In . SVG Version: 6.00 Build 0)  -->
<svg version="1.1" id="Livello_1" xmlns="http://www.w3.org/2000/svg" xmlns:xlink="http://www.w3.org/1999/xlink" x="0px" y="0px"
	 viewBox="0 0 24 24" style="enable-background:new 0 0 24 24;" xml:space="preserve">
<style type="text/css">
	.st0{fill:#FFFFFF;}
</style>
<path class="st0" d="M8.6,12l3.3-3.3l0.7,0.7l-2.1,2.1l4.9,0v1l-4.9,0l2.1,2.1l-0.7,0.7C11.9,15.3,8.6,12,8.6,12z M3,12
	c0,1.2,0.2,2.4,0.7,3.5s1.1,2,1.9,2.9c0.8,0.8,1.8,1.5,2.9,1.9C9.6,20.8,10.8,21,12,21s2.4-0.2,3.5-0.7s2-1.1,2.9-1.9
	c0.8-0.8,1.5-1.8,1.9-2.9c0.5-1.1,0.7-2.3,0.7-3.5s-0.2-2.4-0.7-3.5s-1.1-2-1.9-2.9c-0.8-0.8-1.8-1.5-2.9-1.9C14.4,3.2,13.2,3,12,3
	S9.6,3.2,8.5,3.7s-2,1.1-2.9,1.9C4.8,6.4,4.1,7.4,3.7,8.5C3.2,9.6,3,10.8,3,12z M4,12c0-2.2,0.8-4.1,2.3-5.7C7.8,4.8,9.7,4,12,4
	c2.3,0,4.1,0.8,5.7,2.3C19.2,7.9,20,9.8,20,12s-0.8,4.1-2.3,5.7C16.2,19.3,14.2,20,12,20s-4.1-0.8-5.7-2.3C4.8,16.1,4,14.2,4,12z"/>
</svg>
