<?xml version="1.0" encoding="utf-8"?>
<!-- Generator: Adobe Illustrator 28.3.0, SVG Export Plug-In . SVG Version: 6.00 Build 0)  -->
<svg version="1.1" id="Livello_1" xmlns="http://www.w3.org/2000/svg" xmlns:xlink="http://www.w3.org/1999/xlink" x="0px" y="0px"
	 viewBox="0 0 24 24" style="enable-background:new 0 0 24 24;" xml:space="preserve">
<style type="text/css">
	.st0{fill:#FFFFFF;}
</style>
<path class="st0" d="M12,15.4l3.3-3.3l-0.7-0.7l-2.1,2.1V8.6h-1v4.9l-2.1-2.1l-0.7,0.7C8.7,12.1,12,15.4,12,15.4z M12,21
	c-1.2,0-2.4-0.2-3.5-0.7c-1.1-0.5-2-1.1-2.9-1.9c-0.8-0.8-1.5-1.8-1.9-2.9C3.2,14.4,3,13.2,3,12c0-1.2,0.2-2.4,0.7-3.5
	c0.5-1.1,1.1-2,1.9-2.9c0.8-0.8,1.8-1.5,2.9-1.9C9.6,3.2,10.8,3,12,3c1.2,0,2.4,0.2,3.5,0.7c1.1,0.5,2,1.1,2.9,1.9
	c0.8,0.8,1.5,1.8,1.9,2.9C20.8,9.6,21,10.8,21,12c0,1.2-0.2,2.4-0.7,3.5c-0.5,1.1-1.1,2-1.9,2.9c-0.8,0.8-1.8,1.5-2.9,1.9
	C14.4,20.8,13.2,21,12,21z M12,20c2.2,0,4.1-0.8,5.7-2.3c1.5-1.5,2.3-3.4,2.3-5.7s-0.8-4.1-2.3-5.7C16.1,4.8,14.2,4,12,4
	S7.9,4.8,6.3,6.3S4,9.8,4,12s0.8,4.1,2.3,5.7C7.9,19.2,9.8,20,12,20z"/>
</svg>
